<svg width="42" height="42" viewBox="0 0 42 42" fill="none" xmlns="http://www.w3.org/2000/svg">
<path d="M5.18358 28.5571H4.45975L4.81898 26.6001L5.18358 28.5571Z" fill="#FFBD59"/>
<path d="M5.18358 28.5571H4.45975L4.81898 26.6001L5.18358 28.5571Z" fill="url(#paint0_linear)"/>
<path d="M10.0632 35.5976H9.78442V34.1445H10.0686C10.2723 34.1445 10.4225 34.166 10.519 34.2089C10.6155 34.2518 10.678 34.3286 10.7066 34.4394C10.7388 34.5502 10.7549 34.7093 10.7549 34.9166C10.7549 35.0953 10.7334 35.2347 10.6906 35.3348C10.6477 35.4313 10.5762 35.4993 10.4761 35.5386C10.376 35.5779 10.2384 35.5976 10.0632 35.5976Z" fill="#FFBD59"/>
<path d="M10.0632 35.5976H9.78442V34.1445H10.0686C10.2723 34.1445 10.4225 34.166 10.519 34.2089C10.6155 34.2518 10.678 34.3286 10.7066 34.4394C10.7388 34.5502 10.7549 34.7093 10.7549 34.9166C10.7549 35.0953 10.7334 35.2347 10.6906 35.3348C10.6477 35.4313 10.5762 35.4993 10.4761 35.5386C10.376 35.5779 10.2384 35.5976 10.0632 35.5976Z" fill="url(#paint1_linear)"/>
<path d="M12.5911 35.5815H12.3605V34.1445H12.6286C12.9039 34.1445 13.0879 34.2017 13.1809 34.3161C13.2738 34.4269 13.3202 34.6092 13.3202 34.863C13.3202 35.0489 13.2952 35.1936 13.2452 35.2973C13.1952 35.401 13.1165 35.4742 13.0093 35.5171C12.9021 35.56 12.7627 35.5815 12.5911 35.5815Z" fill="#FFBD59"/>
<path d="M12.5911 35.5815H12.3605V34.1445H12.6286C12.9039 34.1445 13.0879 34.2017 13.1809 34.3161C13.2738 34.4269 13.3202 34.6092 13.3202 34.863C13.3202 35.0489 13.2952 35.1936 13.2452 35.2973C13.1952 35.401 13.1165 35.4742 13.0093 35.5171C12.9021 35.56 12.7627 35.5815 12.5911 35.5815Z" fill="url(#paint2_linear)"/>
<path fill-rule="evenodd" clip-rule="evenodd" d="M41.4924 5.3754C40.0968 7.70797 36.7303 3.58714 36.7303 3.58714C36.0633 2.78966 35.5681 1.46864 35.3162 0H0V42H21.7146C22.1691 40.7206 22.7781 39.5881 23.4964 38.8537C23.4964 38.8537 25.5216 39.7629 27.0332 42H28.3506C27.4521 40.878 26.7841 39.7931 26.7841 39.7931C25.6572 37.1395 25.8534 31.9883 27.4188 29.6387C27.4188 29.6387 30.7476 30.437 32.7768 33.7235C34.2546 36.117 34.1766 39.5991 33.3763 42H34.8032C41.2728 33.2813 42.0387 25.6479 40.2872 9.23404L42 8.37766V4.38299C41.8355 4.7539 41.6639 5.08887 41.4924 5.3754ZM32.4886 13.0619C32.4886 13.0619 37.0784 18.4769 38.3303 16.5603C39.5822 14.6436 39.4772 9.38797 37.0007 6.47275C34.5242 3.55756 31.2772 3.20047 31.2772 3.20047C30.2343 5.65772 30.9661 10.6446 32.4886 13.0619ZM37.2398 32.6966C35.4406 34.7272 31.0588 28.2084 31.0588 28.2084C29.7159 25.3491 29.751 19.6819 31.4031 17.0245C31.4031 17.0245 35.1212 17.7376 37.4866 21.2475C39.8521 24.7574 39.0389 30.6659 37.2398 32.6966ZM4.52409 25.7421L3.60187 30.0851H4.17021L4.37932 28.9913H5.264L5.46238 30.0851H6.03609L5.10851 25.7421H4.52409ZM6.47675 25.7421V30.0851H8.19253V29.6508H7.08262V25.7421H6.47675ZM8.60784 25.7421V30.0851H10.3236V29.6508H9.21371V25.7421H8.60784ZM4.20774 37.9084C4.37932 38.0371 4.61881 38.1014 4.92621 38.1014C5.21217 38.1014 5.43379 38.046 5.59106 37.9352C5.74834 37.8209 5.85915 37.6636 5.92349 37.4634C5.98783 37.2597 6.02 37.0255 6.02 36.761V36.4393H5.4463V36.761C5.4463 36.9326 5.43736 37.0827 5.41949 37.2114C5.40162 37.3401 5.35694 37.442 5.28545 37.517C5.21396 37.5885 5.096 37.6243 4.93157 37.6243C4.79217 37.6243 4.68136 37.5974 4.59915 37.5438C4.51694 37.4902 4.45796 37.4008 4.42221 37.2757C4.38647 37.1471 4.3686 36.9737 4.3686 36.7557V35.0346C4.3686 34.8558 4.37932 34.7003 4.40077 34.5681C4.42579 34.4323 4.47762 34.3286 4.55625 34.2571C4.63489 34.182 4.76 34.1445 4.93157 34.1445C5.09957 34.1445 5.21932 34.1785 5.29081 34.2464C5.3623 34.3143 5.40519 34.4108 5.41949 34.5359C5.43736 34.6574 5.4463 34.7986 5.4463 34.9595V35.2651H6.02V34.922C6.02 34.661 5.98426 34.4376 5.91277 34.2517C5.84485 34.0659 5.73047 33.9229 5.56962 33.8228C5.41234 33.7227 5.19787 33.6727 4.92621 33.6727C4.61881 33.6727 4.37932 33.7334 4.20774 33.855C4.03974 33.9729 3.92179 34.1409 3.85387 34.359C3.78953 34.577 3.75736 34.8326 3.75736 35.1257V36.6591C3.75736 36.9272 3.78953 37.1703 3.85387 37.3883C3.92179 37.6064 4.03974 37.7797 4.20774 37.9084ZM7.26203 36.5197V38.0532H7.84112V36.5197L8.77405 33.7102H8.20571L7.55158 35.8066L6.88671 33.7102H6.32373L7.26203 36.5197ZM9.17856 33.7102V38.0532H9.78444V36.0318H10.2616C10.4975 36.0318 10.6941 35.9871 10.8514 35.8978C11.0087 35.8049 11.1266 35.6744 11.2053 35.5064C11.2875 35.3384 11.3286 35.14 11.3286 34.9112C11.3286 34.6574 11.2929 34.4412 11.2214 34.2625C11.1499 34.0837 11.0355 33.9479 10.8782 33.855C10.7245 33.7585 10.5172 33.7102 10.2563 33.7102H9.17856ZM11.7546 33.7102V38.0532H12.3605V36.0157H12.8323L13.4007 38.0532H13.9852L13.3686 35.8763C13.4973 35.8334 13.6009 35.7655 13.6796 35.6726C13.7582 35.5761 13.8154 35.4599 13.8511 35.3241C13.8868 35.1847 13.9048 35.031 13.9048 34.863C13.9048 34.5877 13.8582 34.3661 13.7653 34.1981C13.6759 34.0266 13.5366 33.9032 13.3471 33.8282C13.1577 33.7495 12.9182 33.7102 12.6287 33.7102H11.7546ZM14.9317 37.9138C15.0997 38.0389 15.341 38.1014 15.6556 38.1014C15.9701 38.1014 16.2096 38.0389 16.374 37.9138C16.542 37.7887 16.6564 37.6135 16.7172 37.3883C16.778 37.1596 16.8083 36.8933 16.8083 36.5894V33.7102H16.2346V36.6163C16.2346 36.8021 16.2221 36.9719 16.1971 37.1256C16.1721 37.2793 16.1185 37.4009 16.0363 37.4902C15.954 37.5796 15.8271 37.6243 15.6556 37.6243C15.4876 37.6243 15.3607 37.5796 15.2749 37.4902C15.1927 37.4009 15.1391 37.2793 15.114 37.1256C15.089 36.9719 15.0765 36.8021 15.0765 36.6163V33.7102H14.4974V36.5894C14.4974 36.8933 14.5278 37.1596 14.5886 37.3883C14.6494 37.6135 14.7637 37.7887 14.9317 37.9138ZM17.843 37.9406C18.011 38.0478 18.2201 38.1014 18.4703 38.1014C18.6741 38.1014 18.8528 38.0603 19.0065 37.9781C19.1638 37.8959 19.2871 37.778 19.3764 37.6243C19.4658 37.467 19.5105 37.2811 19.5105 37.0666C19.5105 36.795 19.4479 36.5609 19.3228 36.3643C19.1977 36.1641 19.053 35.9925 18.8885 35.8495L18.154 35.2061C18.0539 35.1168 17.9806 35.0292 17.9341 34.9434C17.8913 34.8576 17.8698 34.7486 17.8698 34.6163C17.8698 34.4591 17.9109 34.3411 17.9931 34.2625C18.0789 34.1803 18.1969 34.1391 18.347 34.1391C18.4971 34.1391 18.6115 34.1767 18.6901 34.2517C18.7724 34.3232 18.8296 34.4197 18.8617 34.5413C18.8939 34.6592 18.9153 34.7897 18.9261 34.9327L19.4408 34.7933C19.4229 34.6038 19.3872 34.4394 19.3336 34.3C19.2835 34.157 19.2138 34.0391 19.1244 33.9461C19.0387 33.8532 18.9296 33.7853 18.7974 33.7424C18.6687 33.6959 18.5186 33.6727 18.347 33.6727C18.0324 33.6727 17.784 33.7603 17.6017 33.9354C17.4194 34.1106 17.3283 34.3572 17.3283 34.6753C17.3283 34.8934 17.3622 35.0774 17.4301 35.2276C17.4981 35.3741 17.6035 35.51 17.7465 35.6351L18.4757 36.2785C18.6115 36.4 18.7241 36.5215 18.8135 36.6431C18.9028 36.761 18.9475 36.9183 18.9475 37.1149C18.9475 37.2793 18.9064 37.4062 18.8242 37.4956C18.7456 37.5814 18.6276 37.6243 18.4703 37.6243C18.3166 37.6243 18.1969 37.5796 18.1111 37.4902C18.0253 37.3973 17.9627 37.2793 17.9234 37.1363C17.8877 36.9934 17.8644 36.845 17.8537 36.6913L17.3176 36.8361C17.3319 37.0863 17.3819 37.3061 17.4677 37.4956C17.5535 37.685 17.6786 37.8334 17.843 37.9406Z" fill="#FFBD59"/>
<path fill-rule="evenodd" clip-rule="evenodd" d="M41.4924 5.3754C40.0968 7.70797 36.7303 3.58714 36.7303 3.58714C36.0633 2.78966 35.5681 1.46864 35.3162 0H0V42H21.7146C22.1691 40.7206 22.7781 39.5881 23.4964 38.8537C23.4964 38.8537 25.5216 39.7629 27.0332 42H28.3506C27.4521 40.878 26.7841 39.7931 26.7841 39.7931C25.6572 37.1395 25.8534 31.9883 27.4188 29.6387C27.4188 29.6387 30.7476 30.437 32.7768 33.7235C34.2546 36.117 34.1766 39.5991 33.3763 42H34.8032C41.2728 33.2813 42.0387 25.6479 40.2872 9.23404L42 8.37766V4.38299C41.8355 4.7539 41.6639 5.08887 41.4924 5.3754ZM32.4886 13.0619C32.4886 13.0619 37.0784 18.4769 38.3303 16.5603C39.5822 14.6436 39.4772 9.38797 37.0007 6.47275C34.5242 3.55756 31.2772 3.20047 31.2772 3.20047C30.2343 5.65772 30.9661 10.6446 32.4886 13.0619ZM37.2398 32.6966C35.4406 34.7272 31.0588 28.2084 31.0588 28.2084C29.7159 25.3491 29.751 19.6819 31.4031 17.0245C31.4031 17.0245 35.1212 17.7376 37.4866 21.2475C39.8521 24.7574 39.0389 30.6659 37.2398 32.6966ZM4.52409 25.7421L3.60187 30.0851H4.17021L4.37932 28.9913H5.264L5.46238 30.0851H6.03609L5.10851 25.7421H4.52409ZM6.47675 25.7421V30.0851H8.19253V29.6508H7.08262V25.7421H6.47675ZM8.60784 25.7421V30.0851H10.3236V29.6508H9.21371V25.7421H8.60784ZM4.20774 37.9084C4.37932 38.0371 4.61881 38.1014 4.92621 38.1014C5.21217 38.1014 5.43379 38.046 5.59106 37.9352C5.74834 37.8209 5.85915 37.6636 5.92349 37.4634C5.98783 37.2597 6.02 37.0255 6.02 36.761V36.4393H5.4463V36.761C5.4463 36.9326 5.43736 37.0827 5.41949 37.2114C5.40162 37.3401 5.35694 37.442 5.28545 37.517C5.21396 37.5885 5.096 37.6243 4.93157 37.6243C4.79217 37.6243 4.68136 37.5974 4.59915 37.5438C4.51694 37.4902 4.45796 37.4008 4.42221 37.2757C4.38647 37.1471 4.3686 36.9737 4.3686 36.7557V35.0346C4.3686 34.8558 4.37932 34.7003 4.40077 34.5681C4.42579 34.4323 4.47762 34.3286 4.55625 34.2571C4.63489 34.182 4.76 34.1445 4.93157 34.1445C5.09957 34.1445 5.21932 34.1785 5.29081 34.2464C5.3623 34.3143 5.40519 34.4108 5.41949 34.5359C5.43736 34.6574 5.4463 34.7986 5.4463 34.9595V35.2651H6.02V34.922C6.02 34.661 5.98426 34.4376 5.91277 34.2517C5.84485 34.0659 5.73047 33.9229 5.56962 33.8228C5.41234 33.7227 5.19787 33.6727 4.92621 33.6727C4.61881 33.6727 4.37932 33.7334 4.20774 33.855C4.03974 33.9729 3.92179 34.1409 3.85387 34.359C3.78953 34.577 3.75736 34.8326 3.75736 35.1257V36.6591C3.75736 36.9272 3.78953 37.1703 3.85387 37.3883C3.92179 37.6064 4.03974 37.7797 4.20774 37.9084ZM7.26203 36.5197V38.0532H7.84112V36.5197L8.77405 33.7102H8.20571L7.55158 35.8066L6.88671 33.7102H6.32373L7.26203 36.5197ZM9.17856 33.7102V38.0532H9.78444V36.0318H10.2616C10.4975 36.0318 10.6941 35.9871 10.8514 35.8978C11.0087 35.8049 11.1266 35.6744 11.2053 35.5064C11.2875 35.3384 11.3286 35.14 11.3286 34.9112C11.3286 34.6574 11.2929 34.4412 11.2214 34.2625C11.1499 34.0837 11.0355 33.9479 10.8782 33.855C10.7245 33.7585 10.5172 33.7102 10.2563 33.7102H9.17856ZM11.7546 33.7102V38.0532H12.3605V36.0157H12.8323L13.4007 38.0532H13.9852L13.3686 35.8763C13.4973 35.8334 13.6009 35.7655 13.6796 35.6726C13.7582 35.5761 13.8154 35.4599 13.8511 35.3241C13.8868 35.1847 13.9048 35.031 13.9048 34.863C13.9048 34.5877 13.8582 34.3661 13.7653 34.1981C13.6759 34.0266 13.5366 33.9032 13.3471 33.8282C13.1577 33.7495 12.9182 33.7102 12.6287 33.7102H11.7546ZM14.9317 37.9138C15.0997 38.0389 15.341 38.1014 15.6556 38.1014C15.9701 38.1014 16.2096 38.0389 16.374 37.9138C16.542 37.7887 16.6564 37.6135 16.7172 37.3883C16.778 37.1596 16.8083 36.8933 16.8083 36.5894V33.7102H16.2346V36.6163C16.2346 36.8021 16.2221 36.9719 16.1971 37.1256C16.1721 37.2793 16.1185 37.4009 16.0363 37.4902C15.954 37.5796 15.8271 37.6243 15.6556 37.6243C15.4876 37.6243 15.3607 37.5796 15.2749 37.4902C15.1927 37.4009 15.1391 37.2793 15.114 37.1256C15.089 36.9719 15.0765 36.8021 15.0765 36.6163V33.7102H14.4974V36.5894C14.4974 36.8933 14.5278 37.1596 14.5886 37.3883C14.6494 37.6135 14.7637 37.7887 14.9317 37.9138ZM17.843 37.9406C18.011 38.0478 18.2201 38.1014 18.4703 38.1014C18.6741 38.1014 18.8528 38.0603 19.0065 37.9781C19.1638 37.8959 19.2871 37.778 19.3764 37.6243C19.4658 37.467 19.5105 37.2811 19.5105 37.0666C19.5105 36.795 19.4479 36.5609 19.3228 36.3643C19.1977 36.1641 19.053 35.9925 18.8885 35.8495L18.154 35.2061C18.0539 35.1168 17.9806 35.0292 17.9341 34.9434C17.8913 34.8576 17.8698 34.7486 17.8698 34.6163C17.8698 34.4591 17.9109 34.3411 17.9931 34.2625C18.0789 34.1803 18.1969 34.1391 18.347 34.1391C18.4971 34.1391 18.6115 34.1767 18.6901 34.2517C18.7724 34.3232 18.8296 34.4197 18.8617 34.5413C18.8939 34.6592 18.9153 34.7897 18.9261 34.9327L19.4408 34.7933C19.4229 34.6038 19.3872 34.4394 19.3336 34.3C19.2835 34.157 19.2138 34.0391 19.1244 33.9461C19.0387 33.8532 18.9296 33.7853 18.7974 33.7424C18.6687 33.6959 18.5186 33.6727 18.347 33.6727C18.0324 33.6727 17.784 33.7603 17.6017 33.9354C17.4194 34.1106 17.3283 34.3572 17.3283 34.6753C17.3283 34.8934 17.3622 35.0774 17.4301 35.2276C17.4981 35.3741 17.6035 35.51 17.7465 35.6351L18.4757 36.2785C18.6115 36.4 18.7241 36.5215 18.8135 36.6431C18.9028 36.761 18.9475 36.9183 18.9475 37.1149C18.9475 37.2793 18.9064 37.4062 18.8242 37.4956C18.7456 37.5814 18.6276 37.6243 18.4703 37.6243C18.3166 37.6243 18.1969 37.5796 18.1111 37.4902C18.0253 37.3973 17.9627 37.2793 17.9234 37.1363C17.8877 36.9934 17.8644 36.845 17.8537 36.6913L17.3176 36.8361C17.3319 37.0863 17.3819 37.3061 17.4677 37.4956C17.5535 37.685 17.6786 37.8334 17.843 37.9406Z" fill="url(#paint3_linear)"/>
<path d="M42 38.3915C40.9279 38.8016 39.8966 39.3255 39.0359 39.9053C40.3624 37.5306 41.3287 35.1585 42 32.6628V38.3915Z" fill="url(#paint4_linear)"/>
<path d="M42 38.3915C40.9279 38.8016 39.8966 39.3255 39.0359 39.9053C40.3624 37.5306 41.3287 35.1585 42 32.6628V38.3915Z" fill="#FFBD59"/>
<defs>
<linearGradient id="paint0_linear" x1="-14.9681" y1="21.0002" x2="42" y2="21.0002" gradientUnits="userSpaceOnUse">
<stop stop-color="#009A9F"/>
<stop offset="1" stop-color="#009A9F" stop-opacity="0"/>
</linearGradient>
<linearGradient id="paint1_linear" x1="-14.9681" y1="21" x2="42" y2="21" gradientUnits="userSpaceOnUse">
<stop stop-color="#009A9F"/>
<stop offset="1" stop-color="#009A9F" stop-opacity="0"/>
</linearGradient>
<linearGradient id="paint2_linear" x1="-14.9678" y1="21" x2="41.9997" y2="21" gradientUnits="userSpaceOnUse">
<stop stop-color="#009A9F"/>
<stop offset="1" stop-color="#009A9F" stop-opacity="0"/>
</linearGradient>
<linearGradient id="paint3_linear" x1="-14.9681" y1="21" x2="42" y2="21" gradientUnits="userSpaceOnUse">
<stop stop-color="#009A9F"/>
<stop offset="1" stop-color="#009A9F" stop-opacity="0"/>
</linearGradient>
<linearGradient id="paint4_linear" x1="-14.9681" y1="20.9999" x2="42" y2="20.9999" gradientUnits="userSpaceOnUse">
<stop stop-color="#009A9F"/>
<stop offset="1" stop-color="#009A9F" stop-opacity="0"/>
</linearGradient>
</defs>
</svg>
