<svg width="20" height="21" viewBox="0 0 20 21" fill="none" xmlns="http://www.w3.org/2000/svg">
<path d="M14.5892 12.5039L14.5817 12.5681C12.7492 11.6294 12.5575 11.5044 12.3208 11.8693C12.1567 12.1219 11.6783 12.6949 11.5342 12.8645C11.3883 13.0315 11.2433 13.0444 10.9958 12.9287C10.7458 12.8003 9.94333 12.5305 8.99333 11.6569C8.25333 10.9759 7.75666 10.1409 7.60999 9.88393C7.36583 9.45056 7.87666 9.38889 8.34166 8.48444C8.42499 8.30458 8.38249 8.16326 8.32083 8.03565C8.25833 7.90718 7.76083 6.64815 7.55249 6.14625C7.35249 5.64606 7.14666 5.70944 6.99249 5.70944C6.51249 5.66662 6.16166 5.67347 5.85249 6.00407C4.50749 7.52347 4.84666 9.09083 5.99749 10.7575C8.25916 13.7998 9.46416 14.3599 11.6675 15.1376C12.2625 15.332 12.805 15.3046 13.2342 15.2412C13.7125 15.1633 14.7067 14.6237 14.9142 14.0199C15.1267 13.4161 15.1267 12.915 15.0642 12.7994C15.0025 12.6838 14.8392 12.6195 14.5892 12.5039Z" fill="white"/>
<path d="M17.1 3.20438C10.6925 -3.16185 0.0883333 1.45544 0.0841667 10.4365C0.0841667 12.2317 0.541667 13.9823 1.41333 15.5283L0 20.8059L5.27917 19.391C11.8667 23.0482 19.9967 18.1919 20 10.4416C20 7.72146 18.9667 5.16144 17.0875 3.23778L17.1 3.20438ZM18.335 10.4134C18.33 16.9509 11.3475 21.0338 5.825 17.6969L5.525 17.5136L2.4 18.3487L3.2375 15.2268L3.03833 14.9056C-0.398333 9.28283 3.55 1.93421 10.06 1.93421C12.2717 1.93421 14.3475 2.82067 15.9108 4.42657C17.4733 6.01877 18.335 8.15227 18.335 10.4134Z" fill="white"/>
</svg>
