<svg width="20" height="23" viewBox="0 0 20 23" fill="none" xmlns="http://www.w3.org/2000/svg">
<path d="M12.0837 0.222168H7.91625C3.55125 0.222168 0 3.87121 0 8.3566V12.215C0 15.5553 1.99708 18.5573 5 19.7799V22.2813C5 22.4509 5.09708 22.6042 5.24792 22.6727C5.30208 22.6975 5.35958 22.7095 5.41667 22.7095C5.51792 22.7095 5.61833 22.6714 5.69625 22.5986L8.1125 20.3495H12.0837C16.4487 20.3495 20 16.7004 20 12.215V8.3566C20 3.87121 16.4487 0.222168 12.0837 0.222168ZM19.1667 12.215C19.1667 16.2281 15.9896 19.493 12.0837 19.493H7.95167C7.84833 19.493 7.74875 19.5324 7.67208 19.6039L5.83333 21.3156V19.4832C5.83333 19.3016 5.72208 19.1397 5.55542 19.0798C2.73125 18.0533 0.833333 15.2945 0.833333 12.215V8.3566C0.833333 4.34356 4.01083 1.07865 7.91625 1.07865H12.0837C15.9896 1.07865 19.1667 4.34356 19.1667 8.3566V12.215Z" fill="white"/>
<path d="M14.0229 14.8431C13.6475 15.4375 12.8717 15.6062 12.2592 15.2002C12.2287 15.184 9.19083 13.5579 7.58958 11.8814C6.09291 10.3144 5.09916 8.57364 4.96374 8.33083C4.63374 7.37971 4.69208 6.79516 5.15708 6.37977L6.10083 5.53699L7.83083 7.58227C7.98458 7.76384 7.96666 8.02935 7.79083 8.18651L7.27958 8.64302C7.15499 8.75436 7.10583 8.93037 7.15458 9.09224C8.02624 12.0034 9.72124 12.5751 10.9587 12.9927L11.1392 13.0539C11.3196 13.1164 11.5171 13.0449 11.6204 12.8813L11.9158 12.4137C11.9767 12.3169 12.07 12.2514 12.1783 12.2278C12.2871 12.2038 12.3979 12.2261 12.4921 12.2891L14.7037 13.7652L14.0229 14.8431Z" fill="white"/>
<path fill-rule="evenodd" clip-rule="evenodd" d="M15.5067 13.2804L12.9458 11.5709C12.6658 11.3838 12.3325 11.3204 12.0062 11.3898C11.6796 11.4604 11.3987 11.6587 11.2167 11.9478L11.0962 12.1379C9.98791 11.7615 8.76583 11.2806 8.03416 9.10381L8.33708 8.83316C8.85708 8.36852 8.91166 7.55572 8.45958 7.02041L6.45624 4.65182C6.30541 4.47324 6.04208 4.45482 5.86833 4.60942L4.61041 5.73312C3.50708 6.71893 4.02249 8.17709 4.19208 8.65629C4.19958 8.67771 4.20874 8.69826 4.21958 8.71839C4.26333 8.7989 5.30791 10.7148 6.99499 12.4809C8.68874 14.2543 11.7467 15.8919 11.8404 15.9394C12.1896 16.1723 12.5825 16.2841 12.9712 16.2841C13.6537 16.2841 14.3229 15.9402 14.7221 15.3099L15.6296 13.8736C15.7546 13.6744 15.6996 13.4093 15.5067 13.2804ZM12.2592 15.2002C12.8717 15.6062 13.6475 15.4375 14.0229 14.8431L14.7037 13.7652L12.4921 12.2891C12.3979 12.2261 12.2871 12.2038 12.1783 12.2278C12.07 12.2514 11.9767 12.3169 11.9158 12.4137L11.6204 12.8813C11.5171 13.0449 11.3196 13.1164 11.1392 13.0539L10.9587 12.9927C9.72124 12.5751 8.02624 12.0034 7.15458 9.09224C7.10583 8.93037 7.15499 8.75436 7.27958 8.64302L7.79083 8.18651C7.96666 8.02935 7.98458 7.76384 7.83083 7.58227L6.10083 5.53699L5.15708 6.37977C4.69208 6.79516 4.63374 7.37971 4.96374 8.33083C5.09916 8.57364 6.09291 10.3144 7.58958 11.8814C9.19083 13.5579 12.2287 15.184 12.2592 15.2002Z" fill="white"/>
<path d="M10.9513 7.1801C10.7296 7.11458 10.4992 7.24691 10.4363 7.47473C10.3734 7.70213 10.5017 7.93894 10.7229 8.00361C11.3438 8.18518 11.8384 8.69436 12.0134 9.33287C12.065 9.52129 12.2321 9.64506 12.4142 9.64506C12.4517 9.64506 12.4896 9.63992 12.5275 9.62921C12.7488 9.56497 12.8779 9.32859 12.8154 9.10076C12.5625 8.17833 11.8479 7.44218 10.9513 7.1801Z" fill="white"/>
<path d="M14.1221 9.73757C14.1596 9.73757 14.1975 9.73243 14.2354 9.72172C14.4571 9.65749 14.5858 9.42067 14.5233 9.19327C14.0316 7.40194 12.6446 5.97333 10.9029 5.46373C10.6816 5.39821 10.4512 5.53139 10.3883 5.75878C10.3254 5.98618 10.4537 6.223 10.675 6.28766C12.1404 6.7159 13.3075 7.91883 13.7212 9.42581C13.7733 9.61424 13.94 9.73757 14.1221 9.73757Z" fill="white"/>
<path d="M10.7233 3.46916C10.5016 3.40364 10.2712 3.53597 10.2083 3.76422C10.1454 3.99162 10.2737 4.22843 10.495 4.2931C12.9779 5.01896 14.9558 7.05653 15.6566 9.61013C15.7083 9.79856 15.8754 9.92232 16.0575 9.92232C16.095 9.92232 16.1329 9.91718 16.1708 9.90648C16.3921 9.84224 16.5212 9.60542 16.4587 9.37803C15.68 6.54008 13.4825 4.2764 10.7233 3.46916Z" fill="white"/>
</svg>
