<svg width="20" height="21" viewBox="0 0 20 21" fill="none" xmlns="http://www.w3.org/2000/svg">
<path d="M19.2921 12.2705C19.2856 12.3067 19.2747 12.2379 19.2921 12.2705C19.3953 11.6929 19.4495 11.1018 19.4495 10.5109C19.4495 9.20061 19.2 7.92956 18.7068 6.73279C18.231 5.57691 17.5503 4.53885 16.6825 3.64757C15.816 2.75617 14.8053 2.05673 13.6812 1.5678C12.5172 1.06157 11.2804 0.804999 10.0056 0.804999C9.40479 0.804999 8.80298 0.862962 8.21729 0.978638C8.21606 0.978889 8.21289 0.979265 8.21289 0.979265C7.4093 0.540151 6.50574 0.305664 5.59094 0.305664C4.09753 0.305664 2.69348 0.903361 1.63757 1.98898C0.581787 3.07422 0 4.5174 0 6.05216C0 7.02913 0.244629 7.98953 0.703369 8.83803C0.610352 9.38792 0.561157 9.94986 0.561157 10.5109C0.561157 11.8215 0.810791 13.0924 1.30396 14.2893C1.77905 15.4457 2.45996 16.483 3.32703 17.3744C4.19482 18.2657 5.2041 18.9663 6.32947 19.4539C7.49353 19.9612 8.73071 20.2179 10.0055 20.2179C10.5604 20.2179 11.1166 20.1658 11.6595 20.0668C12.496 20.5532 13.443 20.8117 14.41 20.8117C15.9031 20.8117 17.3065 20.2151 18.3625 19.129C19.4187 18.0444 20 16.6009 20 15.0662C20 14.0859 19.7542 13.1224 19.2921 12.2705ZM10.0432 16.4554C6.68811 16.4554 5.18701 14.7602 5.18701 13.4895C5.18701 12.838 5.65515 12.381 6.30029 12.381C7.73621 12.381 7.36438 14.5 10.0432 14.5C11.4147 14.5 12.1719 13.7346 12.1719 12.9515C12.1719 12.4804 11.9458 11.9582 11.0427 11.7295L8.05859 10.9638C5.65515 10.3444 5.21912 9.00903 5.21912 7.75379C5.21912 5.14759 7.60669 4.16911 9.84875 4.16911C11.9142 4.16911 14.3489 5.3423 14.3489 6.9058C14.3489 7.57576 13.7844 7.96532 13.1395 7.96532C11.9142 7.96532 12.1395 6.22216 9.67126 6.22216C8.44653 6.22216 7.76807 6.79226 7.76807 7.60788C7.76807 8.42212 8.73547 8.6822 9.57532 8.8788L11.7842 9.38278C14.2037 9.93682 14.8171 11.3887 14.8171 12.7562C14.8174 14.874 13.2356 16.4554 10.0432 16.4554Z" fill="white"/>
</svg>
