<svg width="20" height="13" viewBox="0 0 20 13" fill="none" xmlns="http://www.w3.org/2000/svg">
<path d="M19.8217 10.85C19.768 10.7575 19.4355 10.0149 17.8353 8.48851C16.1602 6.8902 16.3852 7.14973 18.4029 4.38609C19.6317 2.70298 20.123 1.67513 19.9692 1.23572C19.823 0.816869 18.9192 0.927363 18.9192 0.927363L15.9139 0.94535C15.9139 0.94535 15.6914 0.914515 15.5252 1.01602C15.3639 1.11623 15.2601 1.3475 15.2601 1.3475C15.2601 1.3475 14.7839 2.6503 14.1488 3.75781C12.81 6.0949 12.2737 6.21824 12.0549 6.07305C11.5461 5.73515 11.6736 4.71372 11.6736 3.98908C11.6736 1.72395 12.0074 0.779609 11.0223 0.535494C10.6948 0.45455 10.4548 0.400588 9.61848 0.391594C8.54591 0.380031 7.63709 0.395449 7.1233 0.653697C6.78078 0.825863 6.51701 1.21002 6.67827 1.23186C6.87703 1.25885 7.32707 1.35649 7.56583 1.69054C7.87461 2.12096 7.86336 3.08971 7.86336 3.08971C7.86336 3.08971 8.04087 5.7557 7.44958 6.08719C7.0433 6.3146 6.487 5.85078 5.29317 3.72955C4.68187 2.64388 4.21934 1.44257 4.21934 1.44257C4.21934 1.44257 4.13058 1.21902 3.97182 1.09953C3.77931 0.954344 3.50929 0.908091 3.50929 0.908091L0.651577 0.926078C0.651577 0.926078 0.222795 0.938927 0.0652839 1.13036C-0.0747264 1.30125 0.054033 1.65328 0.054033 1.65328C0.054033 1.65328 2.2917 7.03281 4.82438 9.74506C7.1483 12.2312 9.786 12.068 9.786 12.068H10.9811C10.9811 12.068 11.3424 12.0269 11.5261 11.8226C11.6961 11.635 11.6899 11.283 11.6899 11.283C11.6899 11.283 11.6661 9.63457 12.4112 9.39174C13.145 9.15276 14.0876 10.9849 15.0864 11.6903C15.8414 12.2235 16.4152 12.1066 16.4152 12.1066L19.0867 12.068C19.0867 12.068 20.4843 11.9794 19.8217 10.85Z" fill="white"/>
</svg>
